<?xml version="1.0" encoding="UTF-8" standalone="no"?>
<!-- Created with Inkscape (http://www.inkscape.org/) -->

<svg
   width="210mm"
   height="297mm"
   viewBox="0 0 210 297"
   version="1.1"
   id="svg5"
   xml:space="preserve"
   inkscape:version="1.2.2 (732a01da63, 2022-12-09)"
   sodipodi:docname="logo.svg"
   xmlns:inkscape="http://www.inkscape.org/namespaces/inkscape"
   xmlns:sodipodi="http://sodipodi.sourceforge.net/DTD/sodipodi-0.dtd"
   xmlns="http://www.w3.org/2000/svg"
   xmlns:svg="http://www.w3.org/2000/svg"><sodipodi:namedview
     id="namedview7"
     pagecolor="#505050"
     bordercolor="#eeeeee"
     borderopacity="1"
     inkscape:showpageshadow="0"
     inkscape:pageopacity="0"
     inkscape:pagecheckerboard="0"
     inkscape:deskcolor="#505050"
     inkscape:document-units="mm"
     showgrid="false"
     inkscape:zoom="0.84096521"
     inkscape:cx="-79.670359"
     inkscape:cy="371.00227"
     inkscape:window-width="2240"
     inkscape:window-height="1294"
     inkscape:window-x="-11"
     inkscape:window-y="-11"
     inkscape:window-maximized="1"
     inkscape:current-layer="g532" /><defs
     id="defs2" /><g
     inkscape:label="Layer 1"
     inkscape:groupmode="layer"
     id="layer1"><g
       inkscape:label="Layer 1"
       id="layer1-1"
       transform="translate(-545.95509,-153.20371)"><g
         id="g532"><path
           style="fill:#fdfaf6;stroke-width:0.352778"
           d="m 222.05823,179.36048 c -0.43881,-0.55953 -0.42633,-0.57201 0.1332,-0.1332 0.58764,0.46086 0.77452,0.75056 0.48417,0.75056 -0.0733,0 -0.35107,-0.27782 -0.61737,-0.61736 z"
           id="path544" /><path
           style="fill:#f8d5aa;stroke-width:0.352778"
           d="m 93.515734,151.05006 c 0.351185,-0.38806 0.717894,-0.70556 0.814908,-0.70556 0.09701,0 -0.110945,0.3175 -0.46213,0.70556 -0.351186,0.38805 -0.717894,0.70555 -0.814908,0.70555 -0.09701,0 0.110945,-0.3175 0.46213,-0.70555 z"
           id="path542" /><path
           style="fill:#f7d4a7;stroke-width:0.352778"
           d="m 80.368413,188.4445 c 0,-0.67909 0.0726,-0.95691 0.161333,-0.61736 0.08873,0.33955 0.08873,0.89518 0,1.23473 -0.08873,0.33954 -0.161333,0.0617 -0.161333,-0.61737 z"
           id="path540" /><path
           style="fill:#f4c07e;stroke-width:0.352778"
           d="m 84.194974,188.23872 c 0.01693,-0.41097 0.10052,-0.49456 0.213136,-0.21314 0.101908,0.25466 0.08937,0.55893 -0.02785,0.67616 -0.117225,0.11722 -0.200603,-0.0911 -0.185285,-0.46302 z"
           id="path538" /><path
           style="fill:#f2b05e;stroke-width:0.352778"
           d="m 230.30532,229.47633 c 0.33955,-0.0887 0.89517,-0.0887 1.23472,0 0.33955,0.0887 0.0617,0.16133 -0.61736,0.16133 -0.6791,0 -0.95691,-0.0726 -0.61736,-0.16133 z m 29.28055,-5.99723 c 0.33955,-0.0887 0.89518,-0.0887 1.23473,0 0.33954,0.0887 0.0617,0.16134 -0.61737,0.16134 -0.67909,0 -0.95691,-0.0726 -0.61736,-0.16134 z m -60.85416,-87.83212 c 0.24253,-0.0979 0.63941,-0.0979 0.88194,0 0.24254,0.0979 0.0441,0.17793 -0.44097,0.17793 -0.48507,0 -0.68351,-0.0801 -0.44097,-0.17793 z"
           id="path536" /><path
           style="fill:#ee9629;stroke-width:0.352778"
           d="m 498.93787,350.99106 c -0.43656,-0.31521 -0.79375,-0.80952 -0.79375,-1.09845 0,-0.28894 2.96232,-6.4315 6.58293,-13.65014 10.96847,-21.8685 11.40874,-22.75621 11.40874,-23.00309 0,-0.13117 -0.9982,-1.33219 -2.21821,-2.66892 -6.75517,-7.40146 -10.14633,-17.61288 -10.7119,-32.25556 -0.60394,-15.63603 3.13912,-29.15208 10.68506,-38.58334 3.84448,-4.80501 8.03177,-7.51404 13.49807,-8.73277 8.50405,-1.89601 16.58883,3.83974 18.56628,13.17185 1.15138,5.43363 0.41172,14.37874 -1.94979,23.5802 -2.74848,10.70921 -9.43474,27.68591 -16.71742,42.44624 -1.08893,2.207 -1.97986,4.06788 -1.97986,4.13528 0,0.0674 0.91281,0.39392 2.02847,0.7256 4.01643,1.19405 9.99565,0.58394 14.50652,-1.48021 1.78495,-0.81679 3.22056,-1.11431 3.22056,-0.66744 0,1.18401 -3.54048,3.14555 -7.58472,4.20219 -3.2749,0.85563 -8.01301,1.25035 -10.32561,0.86021 -1.11189,-0.18758 -2.30538,-0.3767 -2.6522,-0.42027 -0.44296,-0.0556 -0.97535,0.55062 -1.78922,2.03746 -4.46754,8.16161 -5.87421,10.59339 -7.7245,13.35363 -2.55947,3.81821 -3.41977,5.65645 -3.42989,7.32887 -0.0106,1.75935 0.6532,2.21701 2.8402,1.95799 3.74879,-0.44399 9.31343,-4.25701 18.7982,-12.88097 14.95808,-13.60054 28.00423,-30.93881 40.61192,-53.97307 2.85446,-5.2151 8.3635,-16.5262 15.06338,-30.92795 5.91765,-12.72031 10.74138,-22.16861 13.50531,-26.45306 2.78082,-4.31062 6.71488,-8.86642 9.25156,-10.71368 4.46461,-3.25121 10.59043,-5.10209 14.28812,-4.31708 4.21361,0.89455 5.70344,2.83426 5.48376,7.13968 -0.15802,3.09705 -1.26203,5.68773 -3.51407,8.24618 -2.6061,2.96069 -6.54286,3.90262 -8.70547,2.0829 -3.67756,-3.09446 -0.80153,-11.01599 4.53809,-12.49939 1.99862,-0.55523 3.06093,-0.41371 4.22085,0.56231 1.09268,0.91942 1.3948,0.67675 0.72217,-0.58007 -0.55514,-1.03728 -2.23739,-1.74435 -4.15013,-1.74435 -6.36123,0 -13.63841,6.19318 -20.83358,17.73021 -5.09366,8.16738 -11.03812,19.6528 -15.38122,29.7184 -4.29091,9.94464 -12.63014,26.42584 -17.58226,34.74862 -11.91113,20.01843 -21.37524,31.54992 -38.35069,46.72817 -2.26347,2.02384 -7.55101,6.0587 -10.40695,7.94144 -8.29693,5.46963 -20.58011,9.71315 -23.01875,7.95238 z m 22.59871,-49.39283 c 6.60558,-15.51014 10.12028,-25.03503 12.19983,-33.06174 1.95843,-7.55922 2.29608,-10.12134 2.3144,-17.56187 0.0153,-6.22518 -0.0603,-7.125 -0.79554,-9.46499 -1.32771,-4.22571 -3.84114,-6.40199 -7.40074,-6.40804 -3.08811,-0.005 -8.4064,2.82985 -10.8093,5.76227 -7.1731,8.75383 -10.82788,21.42255 -10.29532,35.68715 0.32358,8.66727 1.67391,15.58838 4.21844,21.6217 1.80296,4.27498 6.65946,11.44872 7.2921,10.77146 0.14919,-0.15971 1.62344,-3.46538 3.27613,-7.34594 z m 58.91807,28.33204 c -2.07156,-1.00152 -1.95362,-4.76331 0.36625,-11.68229 1.80107,-5.37167 7.0658,-19.57003 11.36684,-30.65499 1.63365,-4.21038 2.97028,-8.03642 2.97028,-8.50232 0,-0.46589 -0.38686,-1.57465 -0.85968,-2.4639 l -0.85968,-1.61684 2.53537,-0.57754 c 7.88028,-1.79508 9.16323,-1.87479 9.56957,-0.59451 0.20086,0.63286 -0.65605,3.44469 -2.38575,7.82841 -2.96848,7.52329 -13.33228,35.09373 -13.85775,36.86528 -0.36496,1.23039 -0.63635,3.32267 -0.64816,4.99693 -0.0173,2.4577 0.0968,3.0388 0.77815,3.96085 l 0.79847,1.08057 -0.79847,0.17982 c -1.54716,0.34842 -7.96636,1.59958 -8.08582,1.57601 -0.0665,-0.0131 -0.46686,-0.1911 -0.88962,-0.39548 z m 28.44825,-7.07718 c -1.97535,-0.99611 -3.67344,-3.45321 -4.22602,-6.11498 -0.57304,-2.76029 -0.47742,-8.70813 0.19294,-12.00215 1.8006,-8.84782 7.00716,-19.70017 13.07077,-27.24421 5.14829,-6.40523 11.74368,-11.70904 16.3197,-13.12378 2.60145,-0.80428 6.34633,-0.96508 7.99475,-0.34328 3.13881,1.18398 4.75313,4.53627 5.01285,10.40965 0.20237,4.57637 -0.54709,8.84872 -2.57736,14.69241 -5.471,15.74705 -18.57319,31.37289 -28.54224,34.03984 -2.71824,0.72719 -5.41284,0.6106 -7.24539,-0.3135 z m 12.60628,-4.55434 c 4.79801,-2.86656 9.25814,-8.80597 14.53904,-19.36118 5.17742,-10.3484 7.63538,-17.51298 7.98275,-23.2685 0.41929,-6.94722 -2.67128,-9.30681 -8.51938,-6.5044 -5.40821,2.59162 -12.69304,12.26491 -17.25213,22.90856 -4.98237,11.63182 -6.95265,21.44905 -5.1166,25.49417 0.8332,1.83569 1.68973,2.24032 4.34699,2.05353 1.52116,-0.10692 2.55382,-0.44662 4.01933,-1.32218 z m 28.32939,-3.75216 c -1.42824,-0.77828 -2.66234,-2.43854 -3.16934,-4.2638 -0.4671,-1.68158 -0.45649,-7.49536 0.0183,-10.06406 0.40799,-2.20703 8.53434,-26.03112 13.17728,-38.63196 0.88781,-2.4095 1.55793,-4.43718 1.48916,-4.50595 -0.0688,-0.0688 -2.29101,0.33657 -4.9383,0.90078 -2.64728,0.5642 -4.81325,0.95837 -4.81325,0.87592 0,-0.15948 1.4246,-3.03753 1.60403,-3.24056 0.0584,-0.0661 2.18671,-0.56025 4.72954,-1.09814 2.54284,-0.53788 4.69264,-1.04726 4.77734,-1.13197 0.0847,-0.0847 1.20254,-3.54646 2.4841,-7.6928 2.9596,-9.57551 3.87696,-11.46255 6.03679,-12.41795 1.43038,-0.63272 7.52611,-2.05704 8.80364,-2.05704 0.3265,0 0.0237,0.69798 -0.87997,2.02848 -0.75776,1.11566 -1.79021,3.01432 -2.29433,4.21925 -1.44925,3.46398 -5.15281,13.43003 -5.15281,13.86588 0,0.21728 0.27782,0.31677 0.61736,0.22109 0.33955,-0.0957 4.74487,-1.00347 9.78959,-2.01731 5.04472,-1.01385 9.35116,-2.01783 9.56986,-2.23107 0.21871,-0.21323 1.38596,-3.64208 2.5939,-7.61965 2.77263,-9.12984 3.89955,-11.52327 5.8279,-12.37772 1.26994,-0.56271 7.99426,-2.08617 9.20802,-2.08617 0.30723,0 0.0254,0.60695 -0.75891,1.63448 -0.6862,0.89897 -1.4904,2.10395 -1.78712,2.67775 -0.81834,1.58249 -6.18998,15.85653 -6.02809,16.01842 0.0778,0.0778 2.55353,-0.35688 5.50158,-0.96601 2.94804,-0.60913 5.43929,-1.0283 5.5361,-0.93149 0.33516,0.33516 -0.98031,3.06044 -1.5622,3.23643 -0.3214,0.0972 -2.64813,0.58612 -5.17049,1.08646 -2.52236,0.50034 -4.90361,1.04205 -5.29166,1.2038 -0.42596,0.17755 -0.9655,1.04544 -1.36149,2.19004 -0.36076,1.04278 -2.12835,5.70596 -3.92799,10.36262 -3.56416,9.22247 -7.93705,22.23904 -9.71825,28.92778 -0.82149,3.08488 -1.1731,5.28609 -1.29607,8.11389 -0.15874,3.6505 -0.11898,3.95376 0.67071,5.11528 0.70762,1.04081 1.07638,1.25192 2.34809,1.34422 2.88282,0.20923 5.88954,-2.41609 9.75432,-8.51701 0.94245,-1.48774 1.81998,-2.70499 1.95007,-2.70499 0.13009,0 0.52311,0.31666 0.87337,0.7037 0.61961,0.68466 0.59373,0.76852 -0.95705,3.10068 -3.45448,5.19506 -7.11271,8.77545 -10.68294,10.45561 -1.94773,0.91661 -6.74105,1.18323 -8.14032,0.45278 -3.46309,-1.80779 -4.78321,-6.69046 -3.66756,-13.56504 0.44501,-2.74212 6.68159,-21.30027 12.87951,-38.32544 1.10868,-3.04546 1.95573,-5.59725 1.88234,-5.67064 -0.14408,-0.14408 -20.04802,3.89038 -20.20477,4.09543 -0.052,0.0681 -0.74474,1.87 -1.53935,4.00431 -0.7946,2.1343 -2.54801,6.73805 -3.89647,10.23055 -4.23363,10.96515 -8.61355,24.72481 -9.98377,31.36434 -1.06078,5.1401 -0.50696,9.53153 1.28898,10.22069 0.94365,0.36212 2.5827,0.2488 3.78788,-0.26188 1.58449,-0.6714 4.76669,-4.13366 7.12597,-7.75313 1.73811,-2.66648 2.07615,-3.0103 2.65512,-2.70045 0.36488,0.19529 0.75224,0.49876 0.86079,0.6744 0.33963,0.54953 -3.36968,5.71932 -6.2884,8.76436 -3.69073,3.85046 -6.21061,5.15338 -10.26547,5.30782 -2.26132,0.0861 -3.0789,-0.0275 -4.06531,-0.56501 z m 61.4984,-12.42767 c -1.91888,-0.76361 -4.38882,-2.95031 -5.28082,-4.67524 -0.80331,-1.55343 -1.52406,-5.43031 -1.5309,-8.23465 -0.0207,-8.49792 3.70768,-18.60778 10.84792,-29.41496 4.09301,-6.19502 9.99587,-12.40383 14.01679,-14.74329 8.27321,-4.81354 15.12103,-3.85849 15.62168,2.17872 0.50461,6.08499 -4.56072,14.58099 -12.97138,21.75667 -4.04769,3.45335 -12.73739,8.40045 -15.84853,9.02268 -0.98056,0.19611 -1.15838,0.44519 -1.79939,2.52055 -1.6642,5.38806 -1.8576,12.4558 -0.42904,15.67956 1.10196,2.48676 2.41345,3.17396 5.73418,3.00465 2.13191,-0.10869 3.1046,-0.36333 4.93889,-1.29292 4.67254,-2.36797 9.35417,-7.14507 13.16694,-13.43544 1.73874,-2.8686 1.86646,-2.99303 2.8767,-2.80261 1.25383,0.23633 1.23782,0.38772 -0.38222,3.61576 -4.04064,8.05126 -10.30393,13.79712 -17.98654,16.50062 -3.16892,1.11514 -8.57956,1.27286 -10.97428,0.3199 z m 10.02076,-28.61643 c 10.82349,-5.34831 19.08142,-15.46041 19.754,-24.18941 0.15552,-2.01833 0.0748,-2.72849 -0.39116,-3.43958 -2.80967,-4.28809 -13.07258,6.91514 -21.94673,23.95757 -1.43717,2.76003 -2.61305,5.21338 -2.61305,5.45189 0,0.62762 1.0553,0.26608 5.19694,-1.78047 z M 602.33101,262.55241 c -2.79861,-0.73621 -3.67797,-3.80361 -2.0765,-7.24332 2.57118,-5.52248 8.55205,-7.67507 11.06296,-3.98169 1.50872,2.21921 0.54051,5.89077 -2.3047,8.73964 -2.0897,2.09241 -4.61079,3.03016 -6.68176,2.48537 z"
           id="path534" /></g></g></g></svg>
